<svg id="Layer_1" data-name="Layer 1" xmlns="http://www.w3.org/2000/svg" viewBox="0 0 2048 2048"><defs><style>.cls-1{fill:#626cef;}.cls-2{fill:#fff;}</style></defs><title>favicon</title><circle class="cls-1" cx="1024" cy="1024" r="1025"/><path class="cls-2" d="M1445.72,632.5a989.53,989.53,0,0,0-250.66-78.76A731.73,731.73,0,0,0,1163,620.4q-140.19-21.07-277.81,0a709.09,709.09,0,0,0-32.49-66.66,986.17,986.17,0,0,0-250.85,79c-158.64,239.72-201.64,473.48-180.14,703.93,105.22,78.57,207.18,126.3,307.43,157.54a765.45,765.45,0,0,0,65.84-108.44,647.35,647.35,0,0,1-103.68-50.46c8.69-6.45,17.2-13.18,25.41-20.11,199.92,93.5,417.14,93.5,614.67,0,8.32,6.93,16.82,13.66,25.42,20.11a646.37,646.37,0,0,1-103.88,50.56,761.22,761.22,0,0,0,65.85,108.43c100.34-31.23,202.4-79,307.62-157.63C1651.57,1069.49,1583.24,837.87,1445.72,632.5ZM822.17,1194.91c-60,0-109.23-56-109.23-124.25S761.1,946.31,822.17,946.31s110.28,56,109.23,124.35C931.49,1138.88,883.23,1194.91,822.17,1194.91Zm403.66,0c-60,0-109.23-56-109.23-124.25s48.16-124.35,109.23-124.35,110.28,56,109.23,124.35C1335.06,1138.88,1286.89,1194.91,1225.83,1194.91Z"/></svg>